<svg width="1015" height="1015" viewBox="0 0 1015 1015" fill="none" xmlns="http://www.w3.org/2000/svg">
  <path
    d="M204 697C230.8 671 268.5 654.833 284 650C239.2 669.2 217 696.667 211.5 708C193 738.5 206.5 766.5 227.5 789.5C273 830 354.333 852.333 385.5 857.5C495.9 876.901 611.333 864.084 655.5 856C741 837.5 781 811.5 791.5 804C839.1 770 837 737.5 832 720C822.5 694.5 795 674.5 795 674.5C795 674.5 765.249 653.985 754.124 650.422C753.061 650.127 752.5 650 752.5 650C752.983 650.088 753.526 650.23 754.124 650.422C760.961 652.318 788.546 661.171 821 688C858.5 719 859.75 748.5 856 762C852.25 775.5 840 798.5 804 825.5C750 851 737.5 859.5 683.5 870.5C640.3 879.3 574.167 885.167 546.5 887C517.333 888.167 445.7 888.1 392.5 878.5C339.3 868.9 294.667 854.167 279 847.5C216.5 823.5 187.333 785.667 183 767.5C173 739 190.5 710.097 204 697Z"
    fill="#24A3DA" />
  <path d="M598.583 353.791V321.179L593.567 322.867V353.791H598.583Z" fill="#2E3385" />
  <path
    d="M568.417 340.58L512.216 359.497C511.7 359.674 511.156 359.761 510.615 359.761C510.072 359.761 509.523 359.674 509.008 359.497L452.81 340.58V387.365H452.869L452.741 388.008C452.741 393.574 478.655 406 510.581 406C542.504 406 568.35 393.574 568.35 388.008L568.218 387.365H568.417V340.58Z"
    fill="#2E3385" />
  <path
    d="M452.809 331.336L510.614 350.792L568.417 331.336L593.567 322.867L598.583 321.179L601.225 320.29L510.614 290L420 320.29L452.809 331.336Z"
    fill="#2E3385" />
  <path
    d="M590.149 361.432V380.471C590.149 383.72 592.799 386.353 596.075 386.353C599.349 386.353 602 383.72 602 380.471V361.432C602 359.824 601.347 358.367 600.295 357.306H591.858C590.805 358.367 590.149 359.824 590.149 361.432Z"
    fill="#2E3385" />
  <path d="M591.101 353.791V357.306H591.858H600.295H601.046V353.791H598.583H593.567H591.101Z" fill="#2E3385" />
  <path d="M431.597 483.094V460.041L428.069 461.234V483.094H431.597Z" fill="#24A3DA" />
  <path
    d="M410.381 473.755L370.855 487.127C370.492 487.252 370.11 487.314 369.729 487.314C369.347 487.314 368.961 487.252 368.599 487.127L329.075 473.755V506.827H329.117L329.027 507.281C329.027 511.216 347.252 520 369.705 520C392.157 520 410.334 511.216 410.334 507.281L410.241 506.827H410.381V473.755Z"
    fill="#24A3DA" />
  <path
    d="M329.075 467.22L369.729 480.974L410.381 467.22L428.069 461.234L431.597 460.041L433.455 459.412L369.729 438L306 459.412L329.075 467.22Z"
    fill="#24A3DA" />
  <path
    d="M425.665 488.495V501.954C425.665 504.25 427.529 506.111 429.833 506.111C432.135 506.111 434 504.25 434 501.954V488.495C434 487.358 433.54 486.328 432.801 485.578H426.867C426.126 486.328 425.665 487.358 425.665 488.495Z"
    fill="#24A3DA" />
  <path d="M426.335 483.094V485.578H426.867H432.801H433.329V483.094H431.597H428.069H426.335Z" fill="#24A3DA" />
  <path d="M711.597 483.094V460.041L708.069 461.234V483.094H711.597Z" fill="#24A3DA" />
  <path
    d="M690.381 473.755L650.855 487.127C650.492 487.252 650.11 487.314 649.729 487.314C649.347 487.314 648.961 487.252 648.599 487.127L609.075 473.755V506.827H609.117L609.027 507.281C609.027 511.216 627.252 520 649.705 520C672.157 520 690.334 511.216 690.334 507.281L690.241 506.827H690.381V473.755Z"
    fill="#24A3DA" />
  <path
    d="M609.075 467.22L649.729 480.974L690.381 467.22L708.069 461.234L711.597 460.041L713.455 459.412L649.729 438L586 459.412L609.075 467.22Z"
    fill="#24A3DA" />
  <path
    d="M705.665 488.495V501.954C705.665 504.25 707.529 506.111 709.833 506.111C712.135 506.111 714 504.25 714 501.954V488.495C714 487.358 713.54 486.328 712.801 485.578H706.867C706.126 486.328 705.665 487.358 705.665 488.495Z"
    fill="#24A3DA" />
  <path d="M706.335 483.094V485.578H706.867H712.801H713.329V483.094H711.597H708.069H706.335Z" fill="#24A3DA" />
  <path
    d="M844 547L856.797 583.968H898.21L864.706 606.815L877.504 643.782L844 620.935L810.496 643.782L823.294 606.815L789.79 583.968H831.203L844 547Z"
    fill="#2E3385" />
  <path
    d="M188 548L200.797 584.968H242.21L208.706 607.815L221.504 644.782L188 621.935L154.496 644.782L167.294 607.815L133.79 584.968H175.203L188 548Z"
    fill="#2E3385" />
  <path
    d="M457.5 591.5C427.9 640.3 407 731.5 422.5 788C371.5 751.5 361.5 703.5 358 684.5C354.5 665.5 358 637.5 372 606.5C386 575.5 429.5 531.5 444 517.5C455.6 506.3 493.167 478.167 510.5 465.5C510.5 465.5 542.833 444.667 555.5 437C555.5 437 662.167 378.833 686.5 368.5L633 404C581.8 440.4 530 494.833 510.5 517.5C491.3 539.1 467.167 575.833 457.5 591.5Z"
    fill="#24A3DA" />
  <path
    d="M564 591C593.6 639.8 614.5 731 599 787.5C650 751 660 703 663.5 684C667 665 663.5 637 649.5 606C635.5 575 592 531 577.5 517C565.9 505.8 528.333 477.667 511 465C511 465 478.667 444.167 466 436.5C466 436.5 359.333 378.333 335 368L388.5 403.5C439.7 439.9 491.5 494.333 511 517C530.2 538.6 554.333 575.333 564 591Z"
    fill="#2E3385" />
  <path
    d="M158.371 871.318L153.649 868.274L152.171 845.818L147.081 846.573L139.127 858.912L135.117 856.327L155.621 824.522L159.63 827.106L149.522 842.786C151.064 842.351 152.621 841.925 154.192 841.509C155.764 841.093 157.335 840.676 158.907 840.26L173.707 836.18L178.384 839.196L156.847 844.923L158.371 871.318Z"
    fill="#94a3b8" />
  <path
    d="M192.308 890.631L188.146 888.3L196.769 872.901L179.844 863.423L171.221 878.822L167.059 876.492L185.549 843.474L189.711 845.805L181.89 859.77L198.815 869.248L206.636 855.282L210.797 857.613L192.308 890.631Z"
    fill="#94a3b8" />
  <path
    d="M230.148 898.079C229.163 900.114 227.832 901.609 226.153 902.563C224.49 903.486 222.552 903.883 220.337 903.753C218.155 903.64 215.824 902.983 213.343 901.782C212.07 901.167 210.877 900.511 209.761 899.814C208.678 899.133 207.713 898.45 206.866 897.766C206.035 897.05 205.339 896.34 204.776 895.636L206.761 891.533C207.66 892.596 208.852 893.742 210.338 894.971C211.856 896.216 213.521 897.276 215.334 898.153C217.02 898.969 218.543 899.431 219.903 899.54C221.264 899.648 222.43 899.428 223.403 898.878C224.375 898.328 225.131 897.496 225.67 896.383C226.208 895.27 226.424 894.216 226.316 893.222C226.208 892.228 225.72 891.128 224.85 889.922C224.029 888.7 222.761 887.224 221.047 885.492C219.846 884.243 218.835 883.048 218.014 881.905C217.24 880.745 216.68 879.591 216.333 878.442C215.986 877.293 215.868 876.117 215.979 874.915C216.121 873.728 216.516 872.466 217.162 871.13C218.039 869.317 219.247 867.998 220.785 867.172C222.338 866.314 224.095 865.928 226.056 866.013C228.048 866.113 230.11 866.679 232.241 867.71C234.117 868.618 235.75 869.624 237.14 870.727C238.529 871.831 239.721 872.977 240.716 874.165L237.603 877.193C236.673 876.114 235.592 875.062 234.362 874.035C233.163 873.023 231.817 872.156 230.322 871.433C228.891 870.74 227.598 870.37 226.444 870.322C225.289 870.274 224.289 870.516 223.443 871.048C222.612 871.549 221.958 872.292 221.481 873.279C220.927 874.424 220.704 875.493 220.811 876.487C220.919 877.481 221.368 878.542 222.157 879.67C222.946 880.797 224.093 882.157 225.6 883.749C227.249 885.45 228.55 887.061 229.503 888.582C230.502 890.086 231.067 891.595 231.197 893.111C231.36 894.642 231.01 896.297 230.148 898.079Z"
    fill="#94a3b8" />
  <path
    d="M277.475 928.524L277.42 915.955L263.419 910.576L255.013 919.895L250.511 918.165L277.942 887.994L281.949 889.534L282.076 930.291L277.475 928.524ZM277.752 899.277C277.755 898.975 277.774 898.433 277.809 897.652C277.844 896.871 277.886 896.073 277.933 895.258C278.027 894.424 278.084 893.783 278.104 893.337C277.685 893.933 277.244 894.54 276.78 895.156C276.362 895.753 275.946 896.293 275.533 896.778C275.153 897.275 274.82 897.696 274.536 898.041L266.424 907.189L277.605 911.484L277.752 899.277Z"
    fill="#94a3b8" />
  <path
    d="M291.701 933.466L303.348 897.461L307.887 898.93L297.544 930.9L313.278 935.99L311.972 940.024L291.701 933.466Z"
    fill="#94a3b8" />
  <path
    d="M354.202 937.639C353.542 940.169 352.431 942.326 350.87 944.109C349.318 945.859 347.326 947.055 344.895 947.699C342.506 948.317 339.687 948.203 336.439 947.355C331.892 946.169 328.743 944.032 326.992 940.946C325.285 937.835 324.962 934.245 326.023 930.177L332.179 906.586L336.794 907.791L330.598 931.535C329.822 934.509 330.007 937.022 331.151 939.074C332.33 941.134 334.526 942.583 337.74 943.422C339.962 944.002 341.859 944.077 343.432 943.647C345.048 943.193 346.364 942.349 347.379 941.117C348.403 939.85 349.156 938.294 349.638 936.448L355.82 912.755L360.384 913.946L354.202 937.639Z"
    fill="#94a3b8" />
  <path
    d="M381.816 957.003L375.568 922.119L375.359 922.081C375.301 922.789 375.19 923.684 375.027 924.768C374.898 925.858 374.733 927.049 374.531 928.341C374.336 929.599 374.117 930.888 373.874 932.208L369.723 954.779L365.396 953.983L372.241 916.765L379.174 918.04L385.033 950.643L385.242 950.681L402.526 922.335L409.407 923.601L402.562 960.818L397.923 959.965L402.131 937.082C402.355 935.866 402.593 934.67 402.845 933.495C403.103 932.285 403.363 931.165 403.624 930.136C403.892 929.071 404.11 928.177 404.279 927.454L404.071 927.415L385.673 957.712L381.816 957.003Z"
    fill="#94a3b8" />
  <path
    d="M448.185 966.205L442.652 965.611L425.879 932.199L425.668 932.176C425.635 932.812 425.595 933.518 425.547 934.295C425.534 935.076 425.497 935.924 425.434 936.842C425.374 937.724 425.311 938.641 425.244 939.593C425.178 940.545 425.093 941.496 424.991 942.444L422.732 963.47L418.358 963L422.401 925.375L427.882 925.964L444.613 959.265L444.824 959.287C444.834 958.862 444.861 958.279 444.905 957.537C444.953 956.76 445.008 955.914 445.071 954.996C445.138 954.044 445.207 953.074 445.277 952.087C445.348 951.099 445.429 950.184 445.519 949.341L447.801 928.104L452.227 928.58L448.185 966.205Z"
    fill="#94a3b8" />
  <path
    d="M474.605 967.8L460.952 967.043L461.105 964.292L465.606 963.533L467.281 933.316L462.894 932.011L463.047 929.259L476.7 930.016L476.548 932.768L472.044 933.58L470.368 963.797L474.758 965.049L474.605 967.8Z"
    fill="#94a3b8" />
  <path
    d="M529.408 968.086L524.623 956.464L509.626 956.756L505.35 968.554L500.528 968.648L514.573 930.366L518.865 930.283L534.336 967.99L529.408 968.086ZM518.647 940.889C518.536 940.609 518.349 940.1 518.088 939.363C517.826 938.626 517.564 937.871 517.301 937.099C517.074 936.29 516.885 935.675 516.735 935.254C516.573 935.964 516.392 936.692 516.195 937.438C516.032 938.148 515.85 938.805 515.65 939.41C515.485 940.014 515.336 940.529 515.203 940.956L511.134 952.485L523.109 952.252L518.647 940.889Z"
    fill="#94a3b8" />
  <path
    d="M565.091 955.62C565.26 957.875 564.858 959.837 563.885 961.504C562.909 963.136 561.43 964.452 559.45 965.451C557.505 966.447 555.159 967.048 552.41 967.254C551.001 967.36 549.639 967.391 548.325 967.348C547.046 967.302 545.869 967.196 544.793 967.028C543.715 966.826 542.756 966.561 541.917 966.234L541.576 961.689C542.887 962.158 544.493 962.551 546.395 962.869C548.332 963.184 550.304 963.267 552.313 963.116C554.18 962.976 555.73 962.612 556.961 962.023C558.192 961.435 559.091 960.659 559.656 959.695C560.222 958.732 560.458 957.633 560.366 956.4C560.274 955.167 559.931 954.147 559.339 953.341C558.747 952.535 557.773 951.829 556.417 951.222C555.093 950.577 553.255 949.935 550.904 949.297C549.239 948.819 547.764 948.292 546.481 947.715C545.23 947.1 544.166 946.383 543.29 945.563C542.413 944.742 541.721 943.785 541.214 942.689C540.742 941.59 540.45 940.301 540.339 938.821C540.189 936.813 540.572 935.066 541.488 933.58C542.401 932.059 543.727 930.843 545.466 929.933C547.24 929.02 549.307 928.476 551.668 928.299C553.747 928.143 555.664 928.194 557.42 928.452C559.175 928.71 560.782 929.103 562.239 929.632L561.064 933.813C559.718 933.347 558.255 932.978 556.676 932.707C555.132 932.433 553.532 932.358 551.876 932.482C550.29 932.601 548.986 932.929 547.963 933.466C546.941 934.004 546.197 934.715 545.732 935.6C545.264 936.45 545.071 937.421 545.153 938.513C545.248 939.782 545.591 940.819 546.183 941.625C546.775 942.431 547.695 943.124 548.944 943.704C550.192 944.283 551.867 944.884 553.968 945.506C556.249 946.15 558.182 946.891 559.769 947.728C561.388 948.528 562.634 949.551 563.507 950.796C564.415 952.039 564.943 953.647 565.091 955.62Z"
    fill="#94a3b8" />
  <path
    d="M599.127 951.558C599.414 953.801 599.115 955.781 598.23 957.497C597.341 959.178 595.934 960.569 594.009 961.67C592.118 962.767 589.807 963.49 587.073 963.84C585.671 964.02 584.313 964.122 582.998 964.148C581.718 964.169 580.537 964.124 579.454 964.013C578.367 963.868 577.396 963.653 576.54 963.371L575.962 958.85C577.295 959.249 578.92 959.558 580.836 959.776C582.786 959.989 584.761 959.968 586.758 959.713C588.616 959.475 590.144 959.03 591.343 958.378C592.542 957.726 593.399 956.904 593.913 955.912C594.427 954.92 594.606 953.811 594.449 952.584C594.292 951.357 593.897 950.357 593.264 949.583C592.63 948.809 591.62 948.155 590.234 947.62C588.878 947.045 587.01 946.501 584.628 945.986C582.94 945.596 581.44 945.147 580.128 944.638C578.847 944.09 577.747 943.429 576.829 942.656C575.91 941.883 575.169 940.962 574.605 939.895C574.076 938.823 573.718 937.55 573.529 936.078C573.274 934.081 573.564 932.316 574.401 930.784C575.234 929.217 576.495 927.934 578.183 926.934C579.907 925.93 581.943 925.277 584.291 924.977C586.359 924.712 588.277 924.663 590.043 924.829C591.81 924.995 593.434 925.303 594.917 925.755L593.963 929.991C592.594 929.596 591.115 929.305 589.523 929.116C587.967 928.924 586.365 928.933 584.718 929.144C583.141 929.345 581.855 929.741 580.862 930.331C579.869 930.922 579.163 931.671 578.745 932.579C578.323 933.453 578.181 934.432 578.32 935.519C578.481 936.781 578.879 937.798 579.512 938.572C580.145 939.346 581.101 939.99 582.377 940.503C583.654 941.017 585.358 941.529 587.49 942.04C589.801 942.564 591.77 943.202 593.399 943.956C595.057 944.67 596.355 945.626 597.292 946.824C598.264 948.017 598.876 949.596 599.127 951.558Z"
    fill="#94a3b8" />
  <path
    d="M642.456 934.805C643.006 937.686 643.142 940.376 642.863 942.875C642.578 945.34 641.869 947.561 640.736 949.54C639.638 951.513 638.099 953.155 636.12 954.468C634.175 955.775 631.797 956.696 628.985 957.233C626.07 957.79 623.45 957.822 621.126 957.33C618.796 956.804 616.76 955.844 615.019 954.45C613.271 953.021 611.825 951.192 610.68 948.965C609.536 946.737 608.689 944.183 608.139 941.302C607.41 937.485 607.399 934.034 608.105 930.949C608.811 927.865 610.278 925.282 612.507 923.202C614.771 921.115 617.846 919.701 621.733 918.959C625.447 918.25 628.723 918.452 631.561 919.565C634.393 920.643 636.726 922.5 638.56 925.136C640.422 927.73 641.721 930.953 642.456 934.805ZM613.094 940.41C613.691 943.534 614.638 946.141 615.936 948.231C617.234 950.322 618.902 951.802 620.939 952.672C623.01 953.536 625.434 953.702 628.21 953.172C631.022 952.636 633.196 951.591 634.734 950.038C636.307 948.479 637.312 946.489 637.749 944.067C638.186 941.646 638.107 938.873 637.51 935.75C636.616 931.064 634.945 927.588 632.498 925.321C630.044 923.02 626.718 922.27 622.518 923.072C619.707 923.608 617.498 924.66 615.89 926.226C614.311 927.75 613.302 929.723 612.865 932.145C612.422 934.532 612.498 937.287 613.094 940.41Z"
    fill="#94a3b8" />
  <path
    d="M666.538 913.109C664.588 913.613 662.915 914.41 661.518 915.501C660.113 916.558 659.031 917.878 658.272 919.461C657.505 921.01 657.069 922.783 656.965 924.78C656.852 926.744 657.092 928.872 657.684 931.164C658.463 934.174 659.601 936.671 661.1 938.656C662.632 940.632 664.477 941.98 666.634 942.7C668.825 943.411 671.323 943.403 674.128 942.678C675.736 942.262 677.223 941.732 678.589 941.087C679.955 940.442 681.269 939.737 682.531 938.973L683.566 942.975C682.33 943.842 681.008 944.586 679.599 945.205C678.224 945.816 676.527 946.383 674.509 946.904C670.78 947.868 667.468 947.903 664.573 947.01C661.678 946.116 659.23 944.413 657.231 941.901C655.265 939.38 653.787 936.204 652.797 932.372C652.08 929.602 651.802 926.973 651.962 924.486C652.156 921.991 652.772 919.715 653.81 917.658C654.882 915.593 656.397 913.833 658.357 912.377C660.307 910.888 662.702 909.776 665.541 909.042C667.423 908.555 669.285 908.275 671.127 908.2C672.968 908.125 674.662 908.253 676.207 908.583L675.368 912.961C674.107 912.739 672.722 912.605 671.213 912.557C669.738 912.5 668.18 912.684 666.538 913.109Z"
    fill="#94a3b8" />
  <path
    d="M707.024 936.886L693.958 940.92L693.145 938.286L697.102 936.011L688.176 907.094L683.609 907.394L682.796 904.761L695.862 900.728L696.675 903.361L692.734 905.687L701.66 934.604L706.211 934.253L707.024 936.886Z"
    fill="#94a3b8" />
  <path
    d="M740.949 925.089L732.69 915.614L718.579 920.698L718.311 933.245L713.773 934.88L714.804 894.116L718.843 892.661L745.586 923.418L740.949 925.089ZM722.037 902.777C721.842 902.547 721.502 902.125 721.018 901.511C720.534 900.897 720.043 900.266 719.547 899.618C719.072 898.926 718.696 898.404 718.42 898.053C718.493 898.778 718.556 899.525 718.608 900.295C718.681 901.02 718.72 901.7 718.724 902.337C718.761 902.962 718.785 903.498 718.796 903.945L718.638 916.171L729.907 912.11L722.037 902.777Z"
    fill="#94a3b8" />
  <path
    d="M765.972 914.866L761.58 916.729L748.437 885.746L737.557 890.362L735.922 886.507L762.025 875.434L763.66 879.289L752.829 883.883L765.972 914.866Z"
    fill="#94a3b8" />
  <path
    d="M796.451 900.936L784.107 906.818L782.921 904.33L786.507 901.506L773.491 874.185L769.016 875.143L767.83 872.655L780.175 866.773L781.36 869.261L777.797 872.133L790.813 899.454L795.266 898.448L796.451 900.936Z"
    fill="#94a3b8" />
  <path
    d="M827.371 863.212C828.769 865.79 829.715 868.311 830.208 870.777C830.685 873.212 830.683 875.544 830.204 877.773C829.756 879.986 828.789 882.018 827.301 883.87C825.845 885.705 823.858 887.305 821.343 888.67C818.734 890.085 816.247 890.911 813.884 891.148C811.503 891.354 809.272 891.057 807.19 890.257C805.091 889.426 803.158 888.123 801.392 886.348C799.625 884.573 798.042 882.396 796.644 879.818C794.791 876.402 793.733 873.117 793.469 869.964C793.206 866.81 793.82 863.904 795.313 861.246C796.836 858.571 799.337 856.29 802.816 854.403C806.139 852.6 809.322 851.798 812.364 851.997C815.389 852.165 818.176 853.226 820.723 855.181C823.285 857.087 825.501 859.764 827.371 863.212ZM801.095 877.464C802.611 880.259 804.305 882.456 806.177 884.054C808.048 885.651 810.086 886.555 812.291 886.766C814.527 886.961 816.887 886.384 819.372 885.036C821.887 883.672 823.642 882.016 824.637 880.07C825.662 878.107 826.015 875.905 825.697 873.465C825.378 871.025 824.461 868.408 822.945 865.612C820.67 861.42 818.023 858.615 815.004 857.198C811.967 855.749 808.57 856.045 804.812 858.083C802.296 859.448 800.51 861.12 799.454 863.1C798.411 865.032 798.05 867.218 798.368 869.658C798.67 872.067 799.579 874.669 801.095 877.464Z"
    fill="#94a3b8" />
  <path
    d="M873.532 856.769L868.837 859.757L834.885 844.107L834.706 844.221C835.077 844.738 835.486 845.316 835.933 845.953C836.41 846.57 836.91 847.257 837.433 848.014C837.937 848.74 838.46 849.496 839.002 850.282C839.544 851.068 840.071 851.863 840.583 852.668L851.934 870.51L848.222 872.872L827.91 840.944L832.56 837.985L866.411 853.574L866.59 853.46C866.332 853.121 865.99 852.648 865.562 852.041C865.115 851.404 864.63 850.708 864.107 849.952C863.565 849.166 863.013 848.365 862.452 847.549C861.892 846.733 861.384 845.968 860.928 845.252L849.463 827.231L853.22 824.841L873.532 856.769Z"
    fill="#94a3b8" />
  <path
    d="M350.5 621C327.7 558.2 250.5 505.5 212 480.5C260.4 487.7 340.167 550.167 374 580.5C368 585 356 609 350.5 621Z"
    fill="#2E3385" />
  <path
    d="M673.5 620.5C696.3 557.7 773.5 505 812 480C763.6 487.2 683.833 549.667 650 580C656 584.5 668 608.5 673.5 620.5Z"
    fill="#2E3385" />
  <path d="M387 331L204.5 333.5L387 335V331Z" fill="url(#paint0_linear_1_1995)" />
  <path fill-rule="evenodd" clip-rule="evenodd"
    d="M385.995 335.157C388.932 335.165 388.716 330.45 385.74 330.445C325.856 330.81 266.384 331.999 206.5 332.367L206.333 332.367C206.333 332.367 206.098 332.368 206.084 332.367C205.725 332.377 205.453 332.44 205.5 333C205.545 333.55 205.841 333.576 206.193 333.581L206.193 333.584C266.127 334.11 326.064 334.649 385.995 335.157Z"
    fill="url(#paint1_linear_1_1995)" />
  <path fill-rule="evenodd" clip-rule="evenodd"
    d="M395.103 295.752C397.731 297.064 399.632 292.744 396.969 291.417C343.159 265.135 289.353 239.773 235.542 213.493L235.393 213.419C235.393 213.419 235.182 213.314 235.17 213.308C234.844 213.157 234.572 213.092 234.365 213.615C234.161 214.128 234.414 214.282 234.728 214.443L234.727 214.446C288.184 241.549 341.64 268.666 395.103 295.752Z"
    fill="url(#paint2_linear_1_1995)" />
  <path fill-rule="evenodd" clip-rule="evenodd"
    d="M426.31 252.112C428.384 254.193 431.562 250.702 429.459 248.596C386.81 206.557 343.872 165.392 301.221 123.354L301.103 123.236C301.103 123.236 300.936 123.07 300.926 123.06C300.665 122.813 300.428 122.665 300.066 123.095C299.71 123.516 299.9 123.743 300.146 123.996L300.144 123.998C342.198 166.703 384.246 209.421 426.31 252.112Z"
    fill="url(#paint3_linear_1_1995)" />
  <path fill-rule="evenodd" clip-rule="evenodd"
    d="M463.845 231.297C464.898 234.039 469.217 232.136 468.148 229.359C446.2 173.641 423.632 118.605 401.68 62.8874L401.62 62.7319C401.62 62.7319 401.535 62.5127 401.53 62.4998C401.392 62.1679 401.235 61.9371 400.73 62.183C400.233 62.4237 400.316 62.7084 400.438 63.0388L400.436 63.0401C421.571 119.126 442.695 175.22 463.845 231.297Z"
    fill="url(#paint4_linear_1_1995)" />
  <path fill-rule="evenodd" clip-rule="evenodd"
    d="M509.974 222.504C509.945 225.442 514.662 225.258 514.688 222.283C514.746 162.398 513.977 102.919 514.032 43.0335L514.033 42.8667C514.033 42.8667 514.035 42.6317 514.035 42.6178C514.028 42.2583 513.967 41.986 513.407 42.029C512.857 42.0705 512.829 42.3655 512.821 42.7179L512.818 42.7181C511.869 102.646 510.906 162.579 509.974 222.504Z"
    fill="url(#paint5_linear_1_1995)" />
  <path fill-rule="evenodd" clip-rule="evenodd"
    d="M551.186 227.329C549.935 229.988 554.299 231.787 555.563 229.093C580.569 174.679 604.655 120.289 629.659 65.8736L629.73 65.7225C629.73 65.7225 629.829 65.5095 629.835 65.4969C629.979 65.1673 630.037 64.8943 629.509 64.6998C628.992 64.5083 628.843 64.7649 628.69 65.0821L628.687 65.081C602.852 119.163 577.003 173.243 551.186 227.329Z"
    fill="url(#paint6_linear_1_1995)" />
  <path fill-rule="evenodd" clip-rule="evenodd"
    d="M594.952 253.238C592.859 255.299 596.331 258.498 598.449 256.407C640.742 214.01 682.163 171.318 724.455 128.919L724.573 128.802C724.573 128.802 724.74 128.636 724.75 128.627C724.999 128.367 725.148 128.131 724.72 127.766C724.301 127.407 724.073 127.597 723.819 127.841L723.817 127.839C680.861 169.637 637.893 211.429 594.952 253.238Z"
    fill="url(#paint7_linear_1_1995)" />
  <path fill-rule="evenodd" clip-rule="evenodd"
    d="M627.316 289.5C624.653 290.739 626.85 294.917 629.547 293.659C683.615 267.913 736.96 241.596 791.028 215.848L791.179 215.777C791.179 215.777 791.392 215.677 791.404 215.671C791.726 215.51 791.945 215.338 791.665 214.851C791.391 214.372 791.112 214.474 790.791 214.619L790.79 214.616C736.298 239.576 681.797 264.526 627.316 289.5Z"
    fill="url(#paint8_linear_1_1995)" />
  <path fill-rule="evenodd" clip-rule="evenodd"
    d="M637.825 334.59C634.887 334.622 635.168 339.334 638.144 339.299C698.017 338.119 757.467 336.122 817.341 334.939L817.508 334.937C817.508 334.937 817.743 334.934 817.757 334.934C818.116 334.919 818.387 334.853 818.332 334.293C818.28 333.744 817.984 333.722 817.632 333.722L817.631 333.719C757.696 334.008 697.757 334.284 637.825 334.59Z"
    fill="url(#paint9_linear_1_1995)" />
  <path fill-rule="evenodd" clip-rule="evenodd"
    d="M388.5 316C389.554 316.218 390.567 312.22 389.5 312C368.056 307.703 346.843 304.169 325.399 299.872L325.339 299.86C325.339 299.86 325.255 299.843 325.25 299.842C325.121 299.818 324.942 299.851 325 300C325.056 300.147 325.251 300.139 325.377 300.166C346.905 304.699 366.975 311.472 388.5 316Z"
    fill="url(#paint10_linear_1_1995)" />
  <path fill-rule="evenodd" clip-rule="evenodd"
    d="M410.18 270.02C411.069 270.627 413.544 267.328 412.644 266.714C394.511 254.487 376.296 243.054 358.163 230.827L358.112 230.793C358.112 230.793 358.041 230.745 358.037 230.742C357.928 230.67 357.75 230.631 357.746 230.791C357.741 230.949 357.923 231.016 358.03 231.09C376.149 243.567 392.061 257.549 410.18 270.02Z"
    fill="url(#paint11_linear_1_1995)" />
  <path fill-rule="evenodd" clip-rule="evenodd"
    d="M445.338 240.082C445.925 240.984 449.479 238.891 448.884 237.978C436.849 219.717 424.433 202.157 412.398 183.897L412.364 183.846C412.364 183.846 412.317 183.774 412.315 183.769C412.241 183.661 412.092 183.557 412.027 183.703C411.962 183.846 412.104 183.979 412.174 184.088C424.1 202.574 433.41 221.601 445.338 240.082Z"
    fill="url(#paint12_linear_1_1995)" />
  <path fill-rule="evenodd" clip-rule="evenodd"
    d="M487.274 225.542C487.47 226.6 491.555 226.032 491.356 224.961C487.253 203.479 482.531 182.498 478.427 161.016L478.416 160.956C478.416 160.956 478.4 160.872 478.399 160.867C478.373 160.739 478.275 160.585 478.159 160.695C478.044 160.803 478.125 160.98 478.147 161.107C482.063 182.755 483.355 203.898 487.274 225.542Z"
    fill="url(#paint13_linear_1_1995)" />
  <path fill-rule="evenodd" clip-rule="evenodd"
    d="M533.941 224.915C533.77 225.977 537.809 226.813 537.981 225.737C541.325 204.124 543.917 182.775 547.261 161.161L547.27 161.101C547.27 161.101 547.284 161.016 547.284 161.011C547.303 160.882 547.262 160.704 547.115 160.769C546.972 160.832 546.988 161.026 546.966 161.153C543.39 182.86 537.512 203.211 533.941 224.915Z"
    fill="url(#paint14_linear_1_1995)" />
  <path fill-rule="evenodd" clip-rule="evenodd"
    d="M574.053 239.509C573.481 240.421 576.874 242.766 577.452 241.843C588.966 223.249 599.684 204.604 611.197 186.009L611.229 185.958C611.229 185.958 611.275 185.885 611.277 185.88C611.345 185.769 611.377 185.589 611.216 185.591C611.059 185.593 610.999 185.778 610.929 185.887C599.165 204.477 585.812 220.92 574.053 239.509Z"
    fill="url(#paint15_linear_1_1995)" />
  <path fill-rule="evenodd" clip-rule="evenodd"
    d="M614.8 269.776C613.929 270.408 616.201 273.85 617.082 273.21C634.706 260.259 651.61 246.965 669.234 234.014L669.283 233.978C669.283 233.978 669.352 233.927 669.357 233.924C669.461 233.846 669.557 233.691 669.408 233.633C669.262 233.576 669.136 233.725 669.031 233.801C651.177 246.653 632.649 256.921 614.8 269.776Z"
    fill="url(#paint16_linear_1_1995)" />
  <path fill-rule="evenodd" clip-rule="evenodd"
    d="M634.785 314.227C633.746 314.507 634.64 318.533 635.692 318.249C656.776 312.438 677.311 306.049 698.395 300.238L698.453 300.222C698.453 300.222 698.537 300.199 698.541 300.198C698.667 300.162 698.812 300.052 698.693 299.945C698.577 299.839 698.407 299.933 698.281 299.966C677.017 305.604 656.045 308.586 634.785 314.227Z"
    fill="url(#paint17_linear_1_1995)" />
  <circle cx="347" cy="223" r="2" fill="#D1A24A" />
  <circle cx="400" cy="167" r="2" fill="#D1A24A" />
  <circle cx="474" cy="140" r="2" fill="#D1A24A" />
  <circle cx="552" cy="139" r="2" fill="#D1A24A" />
  <circle cx="624" cy="169" r="2" fill="#D1A24A" />
  <circle cx="680" cy="226" r="2" fill="#D1A24A" />
  <circle cx="712" cy="297" r="2" fill="#D1A24A" />
  <circle cx="311" cy="296" r="2" fill="#D1A24A" />
  <defs>
    <linearGradient id="paint0_linear_1_1995" x1="204.5" y1="333" x2="387" y2="333" gradientUnits="userSpaceOnUse">
      <stop stop-color="#FBFF00" />
      <stop offset="1" stop-color="#D34845" />
    </linearGradient>
    <linearGradient id="paint1_linear_1_1995" x1="317.701" y1="293.734" x2="276.313" y2="371.134"
      gradientUnits="userSpaceOnUse">
      <stop stop-color="#D44E42" />
      <stop offset="1" stop-color="#DEAC15" />
    </linearGradient>
    <linearGradient id="paint2_linear_1_1995" x1="352.329" y1="228.296" x2="280.858" y2="279.243"
      gradientUnits="userSpaceOnUse">
      <stop stop-color="#D44E42" />
      <stop offset="1" stop-color="#DEAC15" />
    </linearGradient>
    <linearGradient id="paint3_linear_1_1995" x1="407.226" y1="174.551" x2="323.258" y2="200.107"
      gradientUnits="userSpaceOnUse">
      <stop stop-color="#D44E42" />
      <stop offset="1" stop-color="#DEAC15" />
    </linearGradient>
    <linearGradient id="paint4_linear_1_1995" x1="477.836" y1="152.658" x2="390.716" y2="141.985"
      gradientUnits="userSpaceOnUse">
      <stop stop-color="#D44E42" />
      <stop offset="1" stop-color="#DEAC15" />
    </linearGradient>
    <linearGradient id="paint5_linear_1_1995" x1="551.879" y1="154.505" x2="474.774" y2="112.571"
      gradientUnits="userSpaceOnUse">
      <stop stop-color="#D44E42" />
      <stop offset="1" stop-color="#DEAC15" />
    </linearGradient>
    <linearGradient id="paint6_linear_1_1995" x1="617.614" y1="182.977" x2="564.995" y2="112.728"
      gradientUnits="userSpaceOnUse">
      <stop stop-color="#D44E42" />
      <stop offset="1" stop-color="#DEAC15" />
    </linearGradient>
    <linearGradient id="paint7_linear_1_1995" x1="672.625" y1="234.617" x2="647.571" y2="150.498"
      gradientUnits="userSpaceOnUse">
      <stop stop-color="#D44E42" />
      <stop offset="1" stop-color="#DEAC15" />
    </linearGradient>
    <linearGradient id="paint8_linear_1_1995" x1="706.734" y1="298.023" x2="711.361" y2="210.375"
      gradientUnits="userSpaceOnUse">
      <stop stop-color="#D44E42" />
      <stop offset="1" stop-color="#DEAC15" />
    </linearGradient>
    <linearGradient id="paint9_linear_1_1995" x1="706.675" y1="375.081" x2="747.007" y2="297.126"
      gradientUnits="userSpaceOnUse">
      <stop stop-color="#D44E42" />
      <stop offset="1" stop-color="#DEAC15" />
    </linearGradient>
    <linearGradient id="paint10_linear_1_1995" x1="362.435" y1="297.962" x2="353.273" y2="315.095"
      gradientUnits="userSpaceOnUse">
      <stop stop-color="#D44E42" />
      <stop offset="1" stop-color="#DEAC15" />
    </linearGradient>
    <linearGradient id="paint11_linear_1_1995" x1="393.076" y1="243.332" x2="378.021" y2="255.614"
      gradientUnits="userSpaceOnUse">
      <stop stop-color="#D44E42" />
      <stop offset="1" stop-color="#DEAC15" />
    </linearGradient>
    <linearGradient id="paint12_linear_1_1995" x1="439.816" y1="208.869" x2="421.194" y2="214.415"
      gradientUnits="userSpaceOnUse">
      <stop stop-color="#D44E42" />
      <stop offset="1" stop-color="#DEAC15" />
    </linearGradient>
    <linearGradient id="paint13_linear_1_1995" x1="494.158" y1="194.6" x2="474.834" y2="192.573"
      gradientUnits="userSpaceOnUse">
      <stop stop-color="#D44E42" />
      <stop offset="1" stop-color="#DEAC15" />
    </linearGradient>
    <linearGradient id="paint14_linear_1_1995" x1="550.808" y1="198.077" x2="533.286" y2="189.682"
      gradientUnits="userSpaceOnUse">
      <stop stop-color="#D44E42" />
      <stop offset="1" stop-color="#DEAC15" />
    </linearGradient>
    <linearGradient id="paint15_linear_1_1995" x1="600.057" y1="221.382" x2="587.2" y2="206.815"
      gradientUnits="userSpaceOnUse">
      <stop stop-color="#D44E42" />
      <stop offset="1" stop-color="#DEAC15" />
    </linearGradient>
    <linearGradient id="paint16_linear_1_1995" x1="645.692" y1="262.669" x2="639.204" y2="244.355"
      gradientUnits="userSpaceOnUse">
      <stop stop-color="#D44E42" />
      <stop offset="1" stop-color="#DEAC15" />
    </linearGradient>
    <linearGradient id="paint17_linear_1_1995" x1="666.179" y1="318.609" x2="666.652" y2="299.185"
      gradientUnits="userSpaceOnUse">
      <stop stop-color="#D44E42" />
      <stop offset="1" stop-color="#DEAC15" />
    </linearGradient>
  </defs>
</svg>